STARTFONT 2.1
FONT -Monotype-Rockwell-Bold-R-Normal--10-100-72-72-P-52-ISO8859-1
SIZE 10 72 72
FONTBOUNDINGBOX 13 14 -1 -3

STARTPROPERTIES 22
FOUNDRY "Monotype"
FAMILY_NAME "Rockwell"
WEIGHT_NAME "Bold"
SLANT "R"
SETWIDTH_NAME "Normal"
ADD_STYLE_NAME ""
PIXEL_SIZE 10
POINT_SIZE 100
RESOLUTION_X 72
RESOLUTION_Y 72
SPACING "P"
AVERAGE_WIDTH 52
CHARSET_REGISTRY "ISO8859"
CHARSET_ENCODING "1"
FULL_NAME "Rockwell-Bold"
COPYRIGHT "Copyright (c) 1991 The Monotype Corporation plc."
WEIGHT 10
X_HEIGHT 5
QUAD_WIDTH 6
DEFAULT_CHAR 32
FONT_DESCENT 3
FONT_ASCENT 9
ENDPROPERTIES

CHARS 190

STARTCHAR space
ENCODING 32
SWIDTH 250 0
DWIDTH 3 0
BBX 1 1 0 0
BITMAP
00
ENDCHAR

STARTCHAR exclam
ENCODING 33
SWIDTH 354 0
DWIDTH 4 0
BBX 3 8 2 0
BITMAP
C0
C0
C0
C0
40
40
60
60
ENDCHAR

STARTCHAR quotedbl
ENCODING 34
SWIDTH 552 0
DWIDTH 6 0
BBX 4 3 1 5
BITMAP
F0
F0
A0
ENDCHAR

STARTCHAR numbersign
ENCODING 35
SWIDTH 668 0
DWIDTH 7 0
BBX 6 8 0 0
BITMAP
2C
28
FC
48
48
FC
50
D0
ENDCHAR

STARTCHAR dollar
ENCODING 36
SWIDTH 563 0
DWIDTH 6 0
BBX 5 9 0 -1
BITMAP
70
A8
E0
70
28
28
A8
F0
20
ENDCHAR

STARTCHAR percent
ENCODING 37
SWIDTH 927 0
DWIDTH 9 0
BBX 9 8 0 0
BITMAP
E300
A200
A400
A800
FB80
1280
2280
4380
ENDCHAR

STARTCHAR ampersand
ENCODING 38
SWIDTH 802 0
DWIDTH 8 0
BBX 8 8 0 0
BITMAP
30
68
68
70
FB
DE
CC
77
ENDCHAR

STARTCHAR quoteright
ENCODING 39
SWIDTH 354 0
DWIDTH 4 0
BBX 2 4 1 4
BITMAP
C0
C0
40
C0
ENDCHAR

STARTCHAR parenleft
ENCODING 40
SWIDTH 344 0
DWIDTH 3 0
BBX 3 11 0 -3
BITMAP
20
60
40
C0
C0
C0
C0
C0
40
60
20
ENDCHAR

STARTCHAR parenright
ENCODING 41
SWIDTH 344 0
DWIDTH 3 0
BBX 3 11 0 -3
BITMAP
80
C0
40
60
60
60
60
60
40
C0
80
ENDCHAR

STARTCHAR asterisk
ENCODING 42
SWIDTH 573 0
DWIDTH 6 0
BBX 5 5 0 2
BITMAP
20
A8
F8
50
50
ENDCHAR

STARTCHAR plus
ENCODING 43
SWIDTH 668 0
DWIDTH 7 0
BBX 5 5 1 0
BITMAP
20
20
F8
20
20
ENDCHAR

STARTCHAR comma
ENCODING 44
SWIDTH 354 0
DWIDTH 4 0
BBX 2 4 1 -2
BITMAP
C0
C0
40
C0
ENDCHAR

STARTCHAR minus
ENCODING 45
SWIDTH 668 0
DWIDTH 7 0
BBX 6 1 0 3
BITMAP
FC
ENDCHAR

STARTCHAR period
ENCODING 46
SWIDTH 354 0
DWIDTH 4 0
BBX 2 2 1 0
BITMAP
C0
C0
ENDCHAR

STARTCHAR slash
ENCODING 47
SWIDTH 508 0
DWIDTH 4 0
BBX 3 10 0 -2
BITMAP
20
20
20
20
40
40
40
40
80
80
ENDCHAR

STARTCHAR zero
ENCODING 48
SWIDTH 552 0
DWIDTH 6 0
BBX 5 8 0 0
BITMAP
70
D8
D8
D8
D8
D8
D8
70
ENDCHAR

STARTCHAR one
ENCODING 49
SWIDTH 552 0
DWIDTH 6 0
BBX 4 8 1 0
BITMAP
E0
60
60
60
60
60
60
F0
ENDCHAR

STARTCHAR two
ENCODING 50
SWIDTH 552 0
DWIDTH 6 0
BBX 4 8 1 0
BITMAP
E0
B0
30
20
60
40
90
F0
ENDCHAR

STARTCHAR three
ENCODING 51
SWIDTH 552 0
DWIDTH 6 0
BBX 5 8 0 0
BITMAP
70
98
18
10
38
18
98
70
ENDCHAR

STARTCHAR four
ENCODING 52
SWIDTH 552 0
DWIDTH 6 0
BBX 6 8 0 0
BITMAP
18
38
38
58
98
FC
18
3C
ENDCHAR

STARTCHAR five
ENCODING 53
SWIDTH 552 0
DWIDTH 6 0
BBX 5 8 0 0
BITMAP
F8
98
80
F0
98
18
98
70
ENDCHAR

STARTCHAR six
ENCODING 54
SWIDTH 552 0
DWIDTH 6 0
BBX 5 8 0 0
BITMAP
78
C8
C0
F0
D8
D8
D8
70
ENDCHAR

STARTCHAR seven
ENCODING 55
SWIDTH 552 0
DWIDTH 6 0
BBX 4 8 1 0
BITMAP
F0
90
30
20
60
60
60
F0
ENDCHAR

STARTCHAR eight
ENCODING 56
SWIDTH 552 0
DWIDTH 6 0
BBX 5 8 0 0
BITMAP
70
D8
D8
50
F8
D8
D8
70
ENDCHAR

STARTCHAR nine
ENCODING 57
SWIDTH 552 0
DWIDTH 6 0
BBX 5 8 0 0
BITMAP
70
D8
D8
D8
78
18
98
70
ENDCHAR

STARTCHAR colon
ENCODING 58
SWIDTH 354 0
DWIDTH 4 0
BBX 2 5 1 0
BITMAP
C0
C0
00
C0
C0
ENDCHAR

STARTCHAR semicolon
ENCODING 59
SWIDTH 354 0
DWIDTH 4 0
BBX 2 8 1 -3
BITMAP
C0
C0
00
C0
C0
40
40
80
ENDCHAR

STARTCHAR less
ENCODING 60
SWIDTH 667 0
DWIDTH 7 0
BBX 6 6 0 0
BITMAP
04
3C
E0
E0
3C
04
ENDCHAR

STARTCHAR equal
ENCODING 61
SWIDTH 667 0
DWIDTH 7 0
BBX 6 4 0 1
BITMAP
FC
00
00
FC
ENDCHAR

STARTCHAR greater
ENCODING 62
SWIDTH 667 0
DWIDTH 7 0
BBX 6 6 0 0
BITMAP
80
F0
1C
1C
F0
80
ENDCHAR

STARTCHAR question
ENCODING 63
SWIDTH 563 0
DWIDTH 6 0
BBX 5 8 0 0
BITMAP
70
D8
18
18
30
20
60
60
ENDCHAR

STARTCHAR at
ENCODING 64
SWIDTH 979 0
DWIDTH 10 0
BBX 9 11 1 -3
BITMAP
1E00
6100
5A80
B680
A480
A480
AD00
9E80
4100
6300
1E00
ENDCHAR

STARTCHAR A
ENCODING 65
SWIDTH 698 0
DWIDTH 7 0
BBX 7 8 0 0
BITMAP
7C
38
28
2C
2C
7C
44
EE
ENDCHAR

STARTCHAR B
ENCODING 66
SWIDTH 698 0
DWIDTH 7 0
BBX 7 8 0 0
BITMAP
FC
66
66
7C
66
66
66
FC
ENDCHAR

STARTCHAR C
ENCODING 67
SWIDTH 781 0
DWIDTH 8 0
BBX 7 8 0 0
BITMAP
3A
66
C0
C0
C0
C0
66
3C
ENDCHAR

STARTCHAR D
ENCODING 68
SWIDTH 802 0
DWIDTH 8 0
BBX 7 8 0 0
BITMAP
F8
6C
66
66
66
66
6C
FC
ENDCHAR

STARTCHAR E
ENCODING 69
SWIDTH 667 0
DWIDTH 7 0
BBX 6 8 0 0
BITMAP
FC
64
60
70
60
60
64
FC
ENDCHAR

STARTCHAR F
ENCODING 70
SWIDTH 646 0
DWIDTH 6 0
BBX 6 8 0 0
BITMAP
FC
64
60
70
60
60
60
F0
ENDCHAR

STARTCHAR G
ENCODING 71
SWIDTH 844 0
DWIDTH 8 0
BBX 7 8 1 0
BITMAP
3C
64
C0
C0
CE
C6
64
38
ENDCHAR

STARTCHAR H
ENCODING 72
SWIDTH 760 0
DWIDTH 8 0
BBX 8 8 0 0
BITMAP
E7
66
66
7E
66
66
66
E7
ENDCHAR

STARTCHAR I
ENCODING 73
SWIDTH 427 0
DWIDTH 4 0
BBX 4 8 0 0
BITMAP
F0
60
60
60
60
60
60
F0
ENDCHAR

STARTCHAR J
ENCODING 74
SWIDTH 406 0
DWIDTH 4 0
BBX 4 11 0 -3
BITMAP
F0
60
60
60
60
60
60
60
60
60
C0
ENDCHAR

STARTCHAR K
ENCODING 75
SWIDTH 781 0
DWIDTH 8 0
BBX 8 8 0 0
BITMAP
FF
64
6C
78
7C
6C
66
FF
ENDCHAR

STARTCHAR L
ENCODING 76
SWIDTH 646 0
DWIDTH 6 0
BBX 6 8 0 0
BITMAP
F0
60
60
60
60
64
64
FC
ENDCHAR

STARTCHAR M
ENCODING 77
SWIDTH 1042 0
DWIDTH 10 0
BBX 10 8 0 0
BITMAP
F3C0
7380
7B80
5D80
5D80
5D80
4980
EBC0
ENDCHAR

STARTCHAR N
ENCODING 78
SWIDTH 792 0
DWIDTH 8 0
BBX 7 8 1 0
BITMAP
EE
74
74
74
5C
5C
4C
EC
ENDCHAR

STARTCHAR O
ENCODING 79
SWIDTH 854 0
DWIDTH 9 0
BBX 8 8 0 0
BITMAP
3C
66
C3
C3
C3
C3
66
3C
ENDCHAR

STARTCHAR P
ENCODING 80
SWIDTH 667 0
DWIDTH 7 0
BBX 7 8 0 0
BITMAP
FC
66
66
66
7C
60
60
F0
ENDCHAR

STARTCHAR Q
ENCODING 81
SWIDTH 854 0
DWIDTH 9 0
BBX 8 10 0 -2
BITMAP
3C
66
C3
C3
C3
C3
67
3E
38
06
ENDCHAR

STARTCHAR R
ENCODING 82
SWIDTH 729 0
DWIDTH 7 0
BBX 8 8 0 0
BITMAP
FC
66
66
66
7C
6C
66
F7
ENDCHAR

STARTCHAR S
ENCODING 83
SWIDTH 531 0
DWIDTH 5 0
BBX 5 8 0 0
BITMAP
78
D8
C0
F0
38
18
D8
F0
ENDCHAR

STARTCHAR T
ENCODING 84
SWIDTH 677 0
DWIDTH 7 0
BBX 6 8 0 0
BITMAP
FC
B4
B4
30
30
30
30
78
ENDCHAR

STARTCHAR U
ENCODING 85
SWIDTH 677 0
DWIDTH 7 0
BBX 7 8 0 0
BITMAP
FE
64
64
64
64
64
64
38
ENDCHAR

STARTCHAR V
ENCODING 86
SWIDTH 698 0
DWIDTH 7 0
BBX 7 8 0 0
BITMAP
EE
64
64
6C
38
38
38
30
ENDCHAR

STARTCHAR W
ENCODING 87
SWIDTH 990 0
DWIDTH 10 0
BBX 10 8 0 0
BITMAP
EDC0
6C80
6C80
6D00
7F00
3F00
3300
3200
ENDCHAR

STARTCHAR X
ENCODING 88
SWIDTH 740 0
DWIDTH 7 0
BBX 7 8 0 0
BITMAP
FE
64
38
38
18
3C
2C
EE
ENDCHAR

STARTCHAR Y
ENCODING 89
SWIDTH 698 0
DWIDTH 7 0
BBX 8 8 0 0
BITMAP
FF
64
34
38
18
18
18
3C
ENDCHAR

STARTCHAR Z
ENCODING 90
SWIDTH 646 0
DWIDTH 6 0
BBX 5 8 1 0
BITMAP
F8
98
30
30
60
60
C8
F8
ENDCHAR

STARTCHAR bracketleft
ENCODING 91
SWIDTH 417 0
DWIDTH 4 0
BBX 3 11 1 -3
BITMAP
E0
C0
C0
C0
C0
C0
C0
C0
C0
C0
E0
ENDCHAR

STARTCHAR backslash
ENCODING 92
SWIDTH 508 0
DWIDTH 6 0
BBX 5 8 1 0
BITMAP
C0
40
40
20
20
10
10
18
ENDCHAR

STARTCHAR bracketright
ENCODING 93
SWIDTH 417 0
DWIDTH 4 0
BBX 3 11 0 -3
BITMAP
E0
60
60
60
60
60
60
60
60
60
E0
ENDCHAR

STARTCHAR asciicircum
ENCODING 94
SWIDTH 583 0
DWIDTH 6 0
BBX 4 4 1 4
BITMAP
60
60
F0
90
ENDCHAR

STARTCHAR underscore
ENCODING 95
SWIDTH 500 0
DWIDTH 5 0
BBX 5 1 0 -3
BITMAP
F8
ENDCHAR

STARTCHAR quoteleft
ENCODING 96
SWIDTH 354 0
DWIDTH 4 0
BBX 2 4 1 4
BITMAP
C0
80
C0
C0
ENDCHAR

STARTCHAR a
ENCODING 97
SWIDTH 583 0
DWIDTH 6 0
BBX 6 5 0 0
BITMAP
F0
18
F8
D8
FC
ENDCHAR

STARTCHAR b
ENCODING 98
SWIDTH 625 0
DWIDTH 6 0
BBX 5 8 0 0
BITMAP
C0
C0
C0
F0
D8
D8
D8
F0
ENDCHAR

STARTCHAR c
ENCODING 99
SWIDTH 563 0
DWIDTH 6 0
BBX 5 5 0 0
BITMAP
78
C8
C0
C0
78
ENDCHAR

STARTCHAR d
ENCODING 100
SWIDTH 625 0
DWIDTH 6 0
BBX 6 8 0 0
BITMAP
38
18
18
78
D8
D8
D8
7C
ENDCHAR

STARTCHAR e
ENCODING 101
SWIDTH 573 0
DWIDTH 6 0
BBX 5 5 0 0
BITMAP
70
D8
F8
C0
78
ENDCHAR

STARTCHAR f
ENCODING 102
SWIDTH 354 0
DWIDTH 4 0
BBX 5 8 0 0
BITMAP
38
70
60
F0
60
60
60
F0
ENDCHAR

STARTCHAR g
ENCODING 103
SWIDTH 625 0
DWIDTH 6 0
BBX 6 8 0 -3
BITMAP
7C
D8
D8
D8
78
18
18
F0
ENDCHAR

STARTCHAR h
ENCODING 104
SWIDTH 625 0
DWIDTH 6 0
BBX 7 8 0 0
BITMAP
E0
60
60
7C
6C
6C
6C
FE
ENDCHAR

STARTCHAR i
ENCODING 105
SWIDTH 354 0
DWIDTH 4 0
BBX 4 8 0 0
BITMAP
60
00
00
E0
60
60
60
F0
ENDCHAR

STARTCHAR j
ENCODING 106
SWIDTH 354 0
DWIDTH 4 0
BBX 3 11 0 -3
BITMAP
60
00
00
E0
60
60
60
60
60
60
C0
ENDCHAR

STARTCHAR k
ENCODING 107
SWIDTH 646 0
DWIDTH 6 0
BBX 7 8 0 0
BITMAP
E0
60
60
6E
6C
78
6C
F6
ENDCHAR

STARTCHAR l
ENCODING 108
SWIDTH 354 0
DWIDTH 4 0
BBX 4 8 0 0
BITMAP
E0
60
60
60
60
60
60
F0
ENDCHAR

STARTCHAR m
ENCODING 109
SWIDTH 990 0
DWIDTH 10 0
BBX 10 5 0 0
BITMAP
FB80
6D80
6D80
6D80
FFC0
ENDCHAR

STARTCHAR n
ENCODING 110
SWIDTH 625 0
DWIDTH 6 0
BBX 7 5 0 0
BITMAP
FC
6C
6C
6C
FE
ENDCHAR

STARTCHAR o
ENCODING 111
SWIDTH 573 0
DWIDTH 6 0
BBX 5 5 0 0
BITMAP
70
D8
D8
D8
70
ENDCHAR

STARTCHAR p
ENCODING 112
SWIDTH 625 0
DWIDTH 6 0
BBX 6 8 0 -3
BITMAP
F8
6C
6C
6C
78
60
60
F0
ENDCHAR

STARTCHAR q
ENCODING 113
SWIDTH 625 0
DWIDTH 6 0
BBX 6 8 0 -3
BITMAP
7C
D8
D8
D8
78
18
18
3C
ENDCHAR

STARTCHAR r
ENCODING 114
SWIDTH 448 0
DWIDTH 4 0
BBX 4 5 0 0
BITMAP
F0
70
60
60
F0
ENDCHAR

STARTCHAR s
ENCODING 115
SWIDTH 510 0
DWIDTH 5 0
BBX 4 5 1 0
BITMAP
F0
C0
30
90
F0
ENDCHAR

STARTCHAR t
ENCODING 116
SWIDTH 344 0
DWIDTH 3 0
BBX 4 7 0 0
BITMAP
20
60
F0
60
60
60
70
ENDCHAR

STARTCHAR u
ENCODING 117
SWIDTH 625 0
DWIDTH 6 0
BBX 7 5 0 0
BITMAP
FC
6C
6C
6C
7E
ENDCHAR

STARTCHAR v
ENCODING 118
SWIDTH 573 0
DWIDTH 6 0
BBX 6 5 0 0
BITMAP
FC
68
70
30
30
ENDCHAR

STARTCHAR w
ENCODING 119
SWIDTH 813 0
DWIDTH 8 0
BBX 8 5 0 0
BITMAP
FB
5A
7E
76
24
ENDCHAR

STARTCHAR x
ENCODING 120
SWIDTH 563 0
DWIDTH 6 0
BBX 5 5 0 0
BITMAP
D8
70
30
70
D8
ENDCHAR

STARTCHAR y
ENCODING 121
SWIDTH 594 0
DWIDTH 6 0
BBX 6 8 0 -3
BITMAP
FC
68
68
70
30
30
20
60
ENDCHAR

STARTCHAR z
ENCODING 122
SWIDTH 531 0
DWIDTH 5 0
BBX 5 5 0 0
BITMAP
F8
90
20
48
F8
ENDCHAR

STARTCHAR braceleft
ENCODING 123
SWIDTH 385 0
DWIDTH 4 0
BBX 3 11 0 -3
BITMAP
60
40
40
40
40
40
C0
40
40
40
60
ENDCHAR

STARTCHAR bar
ENCODING 124
SWIDTH 611 0
DWIDTH 6 0
BBX 1 11 3 -3
BITMAP
80
80
80
80
80
80
80
80
80
80
80
ENDCHAR

STARTCHAR braceright
ENCODING 125
SWIDTH 385 0
DWIDTH 4 0
BBX 3 11 0 -3
BITMAP
C0
40
40
40
40
40
60
40
40
40
C0
ENDCHAR

STARTCHAR asciitilde
ENCODING 126
SWIDTH 583 0
DWIDTH 6 0
BBX 5 2 0 4
BITMAP
E8
B8
ENDCHAR

STARTCHAR exclamdown
ENCODING 161
SWIDTH 354 0
DWIDTH 4 0
BBX 3 7 2 -2
BITMAP
60
60
40
C0
C0
C0
C0
ENDCHAR

STARTCHAR cent
ENCODING 162
SWIDTH 563 0
DWIDTH 6 0
BBX 5 11 0 -3
BITMAP
08
08
10
78
D8
E0
E8
70
40
40
40
ENDCHAR

STARTCHAR sterling
ENCODING 163
SWIDTH 573 0
DWIDTH 6 0
BBX 4 8 1 0
BITMAP
70
D0
C0
C0
C0
E0
F0
F0
ENDCHAR

STARTCHAR currency
ENCODING 164
SWIDTH 667 0
DWIDTH 7 0
BBX 4 5 1 1
BITMAP
F0
90
90
90
F0
ENDCHAR

STARTCHAR yen
ENCODING 165
SWIDTH 698 0
DWIDTH 7 0
BBX 8 8 0 0
BITMAP
FF
66
FF
3C
FF
18
18
3C
ENDCHAR

STARTCHAR brokenbar
ENCODING 166
SWIDTH 611 0
DWIDTH 6 0
BBX 1 11 3 -3
BITMAP
80
80
80
80
80
80
00
80
80
80
80
ENDCHAR

STARTCHAR section
ENCODING 167
SWIDTH 521 0
DWIDTH 5 0
BBX 5 11 0 -3
BITMAP
60
D0
E0
B0
D8
88
C8
68
38
58
30
ENDCHAR

STARTCHAR dieresis
ENCODING 168
SWIDTH 333 0
DWIDTH 3 0
BBX 4 2 0 6
BITMAP
F0
F0
ENDCHAR

STARTCHAR copyright
ENCODING 169
SWIDTH 740 0
DWIDTH 7 0
BBX 8 8 0 0
BITMAP
3C
42
99
A5
A1
A5
5A
3C
ENDCHAR

STARTCHAR ordfeminine
ENCODING 170
SWIDTH 396 0
DWIDTH 4 0
BBX 3 4 1 4
BITMAP
E0
E0
A0
E0
ENDCHAR

STARTCHAR guillemotleft
ENCODING 171
SWIDTH 542 0
DWIDTH 5 0
BBX 4 5 1 0
BITMAP
F0
F0
50
F0
F0
ENDCHAR

STARTCHAR logicalnot
ENCODING 172
SWIDTH 668 0
DWIDTH 7 0
BBX 5 3 1 1
BITMAP
F8
08
08
ENDCHAR

STARTCHAR hyphen
ENCODING 173
SWIDTH 344 0
DWIDTH 3 0
BBX 3 1 0 2
BITMAP
E0
ENDCHAR

STARTCHAR registered
ENCODING 174
SWIDTH 740 0
DWIDTH 7 0
BBX 7 8 0 0
BITMAP
38
44
BA
AA
BA
AA
44
38
ENDCHAR

STARTCHAR macron
ENCODING 175
SWIDTH 333 0
DWIDTH 3 0
BBX 5 1 0 5
BITMAP
F8
ENDCHAR

STARTCHAR degree
ENCODING 176
SWIDTH 396 0
DWIDTH 4 0
BBX 4 4 0 4
BITMAP
60
90
90
60
ENDCHAR

STARTCHAR plusminus
ENCODING 177
SWIDTH 668 0
DWIDTH 7 0
BBX 5 8 1 0
BITMAP
20
20
20
F8
20
20
00
F8
ENDCHAR

STARTCHAR twosuperior
ENCODING 178
SWIDTH 333 0
DWIDTH 3 0
BBX 3 4 -1 4
BITMAP
E0
A0
E0
E0
ENDCHAR

STARTCHAR threesuperior
ENCODING 179
SWIDTH 333 0
DWIDTH 3 0
BBX 3 4 -1 4
BITMAP
E0
60
A0
E0
ENDCHAR

STARTCHAR acute
ENCODING 180
SWIDTH 333 0
DWIDTH 3 0
BBX 3 2 0 6
BITMAP
60
80
ENDCHAR

STARTCHAR mu
ENCODING 181
SWIDTH 615 0
DWIDTH 6 0
BBX 5 8 1 -3
BITMAP
D8
D8
D8
D8
F8
C0
C0
C0
ENDCHAR

STARTCHAR paragraph
ENCODING 182
SWIDTH 552 0
DWIDTH 6 0
BBX 6 11 0 -3
BITMAP
7C
E8
E8
68
28
28
28
28
28
28
28
ENDCHAR

STARTCHAR periodcentered
ENCODING 183
SWIDTH 365 0
DWIDTH 4 0
BBX 2 2 1 3
BITMAP
C0
C0
ENDCHAR

STARTCHAR cedilla
ENCODING 184
SWIDTH 333 0
DWIDTH 3 0
BBX 2 2 0 -3
BITMAP
C0
C0
ENDCHAR

STARTCHAR onesuperior
ENCODING 185
SWIDTH 333 0
DWIDTH 3 0
BBX 3 4 -1 4
BITMAP
C0
40
40
E0
ENDCHAR

STARTCHAR ordmasculine
ENCODING 186
SWIDTH 375 0
DWIDTH 4 0
BBX 3 3 0 5
BITMAP
E0
A0
E0
ENDCHAR

STARTCHAR guillemotright
ENCODING 187
SWIDTH 542 0
DWIDTH 5 0
BBX 4 5 1 0
BITMAP
F0
F0
A0
F0
F0
ENDCHAR

STARTCHAR onequarter
ENCODING 188
SWIDTH 927 0
DWIDTH 10 0
BBX 10 8 2 0
BITMAP
C300
4200
4400
E400
0980
1980
13C0
21C0
ENDCHAR

STARTCHAR onehalf
ENCODING 189
SWIDTH 927 0
DWIDTH 10 0
BBX 10 8 2 0
BITMAP
C300
4200
4400
E400
09C0
1940
11C0
21C0
ENDCHAR

STARTCHAR threequarters
ENCODING 190
SWIDTH 927 0
DWIDTH 10 0
BBX 10 8 2 0
BITMAP
E300
6200
A400
E400
0980
1980
13C0
21C0
ENDCHAR

STARTCHAR questiondown
ENCODING 191
SWIDTH 563 0
DWIDTH 6 0
BBX 5 8 0 -3
BITMAP
30
30
20
60
E0
C0
D8
70
ENDCHAR

STARTCHAR Agrave
ENCODING 192
SWIDTH 698 0
DWIDTH 7 0
BBX 7 10 0 0
BITMAP
30
08
7C
38
28
2C
2C
7C
44
EE
ENDCHAR

STARTCHAR Aacute
ENCODING 193
SWIDTH 698 0
DWIDTH 7 0
BBX 7 10 0 0
BITMAP
18
20
7C
38
28
2C
2C
7C
44
EE
ENDCHAR

STARTCHAR Acircumflex
ENCODING 194
SWIDTH 698 0
DWIDTH 7 0
BBX 7 10 0 0
BITMAP
18
24
7C
38
28
2C
2C
7C
44
EE
ENDCHAR

STARTCHAR Atilde
ENCODING 195
SWIDTH 698 0
DWIDTH 7 0
BBX 7 10 0 0
BITMAP
34
2C
7C
38
28
2C
2C
7C
44
EE
ENDCHAR

STARTCHAR Adieresis
ENCODING 196
SWIDTH 698 0
DWIDTH 7 0
BBX 7 10 0 0
BITMAP
78
78
7C
38
28
2C
2C
7C
44
EE
ENDCHAR

STARTCHAR Aring
ENCODING 197
SWIDTH 698 0
DWIDTH 7 0
BBX 7 11 0 0
BITMAP
38
28
38
7C
38
28
2C
2C
7C
44
EE
ENDCHAR

STARTCHAR AE
ENCODING 198
SWIDTH 990 0
DWIDTH 10 0
BBX 10 8 0 0
BITMAP
3FC0
1E40
1600
3600
3F00
6600
4640
EFC0
ENDCHAR

STARTCHAR Ccedilla
ENCODING 199
SWIDTH 781 0
DWIDTH 8 0
BBX 7 10 0 -2
BITMAP
3A
66
C0
C0
C0
C0
66
3C
30
30
ENDCHAR

STARTCHAR Egrave
ENCODING 200
SWIDTH 667 0
DWIDTH 7 0
BBX 6 10 0 0
BITMAP
60
10
FC
64
60
70
60
60
64
FC
ENDCHAR

STARTCHAR Eacute
ENCODING 201
SWIDTH 667 0
DWIDTH 7 0
BBX 6 10 0 0
BITMAP
18
20
FC
64
60
70
60
60
64
FC
ENDCHAR

STARTCHAR Ecircumflex
ENCODING 202
SWIDTH 667 0
DWIDTH 7 0
BBX 6 10 0 0
BITMAP
30
48
FC
64
60
70
60
60
64
FC
ENDCHAR

STARTCHAR Edieresis
ENCODING 203
SWIDTH 667 0
DWIDTH 7 0
BBX 6 10 0 0
BITMAP
78
78
FC
64
60
70
60
60
64
FC
ENDCHAR

STARTCHAR Igrave
ENCODING 204
SWIDTH 427 0
DWIDTH 4 0
BBX 4 10 0 0
BITMAP
C0
20
F0
60
60
60
60
60
60
F0
ENDCHAR

STARTCHAR Iacute
ENCODING 205
SWIDTH 427 0
DWIDTH 4 0
BBX 4 10 0 0
BITMAP
30
40
F0
60
60
60
60
60
60
F0
ENDCHAR

STARTCHAR Icircumflex
ENCODING 206
SWIDTH 427 0
DWIDTH 4 0
BBX 4 10 0 0
BITMAP
60
90
F0
60
60
60
60
60
60
F0
ENDCHAR

STARTCHAR Idieresis
ENCODING 207
SWIDTH 427 0
DWIDTH 4 0
BBX 4 10 0 0
BITMAP
F0
F0
F0
60
60
60
60
60
60
F0
ENDCHAR

STARTCHAR Eth
ENCODING 208
SWIDTH 802 0
DWIDTH 8 0
BBX 7 8 0 0
BITMAP
F8
6C
66
66
F6
66
6C
FC
ENDCHAR

STARTCHAR Ntilde
ENCODING 209
SWIDTH 792 0
DWIDTH 8 0
BBX 7 10 1 0
BITMAP
68
58
EE
74
74
74
5C
5C
4C
EC
ENDCHAR

STARTCHAR Ograve
ENCODING 210
SWIDTH 854 0
DWIDTH 9 0
BBX 8 10 0 0
BITMAP
30
08
3C
66
C3
C3
C3
C3
66
3C
ENDCHAR

STARTCHAR Oacute
ENCODING 211
SWIDTH 854 0
DWIDTH 9 0
BBX 8 10 0 0
BITMAP
0C
10
3C
66
C3
C3
C3
C3
66
3C
ENDCHAR

STARTCHAR Ocircumflex
ENCODING 212
SWIDTH 854 0
DWIDTH 9 0
BBX 8 10 0 0
BITMAP
18
24
3C
66
C3
C3
C3
C3
66
3C
ENDCHAR

STARTCHAR Otilde
ENCODING 213
SWIDTH 854 0
DWIDTH 9 0
BBX 8 10 0 0
BITMAP
34
2C
3C
66
C3
C3
C3
C3
66
3C
ENDCHAR

STARTCHAR Odieresis
ENCODING 214
SWIDTH 854 0
DWIDTH 9 0
BBX 8 10 0 0
BITMAP
3C
3C
3C
66
C3
C3
C3
C3
66
3C
ENDCHAR

STARTCHAR multiply
ENCODING 215
SWIDTH 667 0
DWIDTH 7 0
BBX 5 6 1 1
BITMAP
88
D8
70
70
D8
88
ENDCHAR

STARTCHAR Oslash
ENCODING 216
SWIDTH 854 0
DWIDTH 9 0
BBX 8 8 0 0
BITMAP
3D
66
C7
CB
DB
F3
66
7C
ENDCHAR

STARTCHAR Ugrave
ENCODING 217
SWIDTH 677 0
DWIDTH 7 0
BBX 7 10 0 0
BITMAP
30
08
FE
64
64
64
64
64
64
38
ENDCHAR

STARTCHAR Uacute
ENCODING 218
SWIDTH 677 0
DWIDTH 7 0
BBX 7 10 0 0
BITMAP
18
20
FE
64
64
64
64
64
64
38
ENDCHAR

STARTCHAR Ucircumflex
ENCODING 219
SWIDTH 677 0
DWIDTH 7 0
BBX 7 10 0 0
BITMAP
18
24
FE
64
64
64
64
64
64
38
ENDCHAR

STARTCHAR Udieresis
ENCODING 220
SWIDTH 677 0
DWIDTH 7 0
BBX 7 10 0 0
BITMAP
3C
3C
FE
64
64
64
64
64
64
38
ENDCHAR

STARTCHAR Yacute
ENCODING 221
SWIDTH 698 0
DWIDTH 7 0
BBX 8 10 0 0
BITMAP
0C
10
FF
64
34
38
18
18
18
3C
ENDCHAR

STARTCHAR Thorn
ENCODING 222
SWIDTH 667 0
DWIDTH 7 0
BBX 6 8 0 0
BITMAP
F0
60
78
6C
6C
6C
78
F0
ENDCHAR

STARTCHAR germandbls
ENCODING 223
SWIDTH 646 0
DWIDTH 6 0
BBX 6 8 0 0
BITMAP
38
6C
6C
78
6C
6C
6C
F8
ENDCHAR

STARTCHAR agrave
ENCODING 224
SWIDTH 583 0
DWIDTH 6 0
BBX 6 7 0 0
BITMAP
60
10
F0
18
F8
D8
FC
ENDCHAR

STARTCHAR aacute
ENCODING 225
SWIDTH 583 0
DWIDTH 6 0
BBX 6 7 0 0
BITMAP
18
20
F0
18
F8
D8
FC
ENDCHAR

STARTCHAR acircumflex
ENCODING 226
SWIDTH 583 0
DWIDTH 6 0
BBX 6 7 0 0
BITMAP
30
48
F0
18
F8
D8
FC
ENDCHAR

STARTCHAR atilde
ENCODING 227
SWIDTH 583 0
DWIDTH 6 0
BBX 6 7 0 0
BITMAP
68
58
F0
18
F8
D8
FC
ENDCHAR

STARTCHAR adieresis
ENCODING 228
SWIDTH 583 0
DWIDTH 6 0
BBX 6 7 0 0
BITMAP
78
78
F0
18
F8
D8
FC
ENDCHAR

STARTCHAR aring
ENCODING 229
SWIDTH 583 0
DWIDTH 6 0
BBX 6 8 0 0
BITMAP
70
50
70
F0
18
F8
D8
FC
ENDCHAR

STARTCHAR ae
ENCODING 230
SWIDTH 885 0
DWIDTH 9 0
BBX 9 5 0 0
BITMAP
FF00
0D80
7F80
CC00
FF80
ENDCHAR

STARTCHAR ccedilla
ENCODING 231
SWIDTH 563 0
DWIDTH 6 0
BBX 5 7 0 -2
BITMAP
78
C8
C0
C0
78
60
60
ENDCHAR

STARTCHAR egrave
ENCODING 232
SWIDTH 573 0
DWIDTH 6 0
BBX 5 7 0 0
BITMAP
60
10
70
D8
F8
C0
78
ENDCHAR

STARTCHAR eacute
ENCODING 233
SWIDTH 573 0
DWIDTH 6 0
BBX 5 7 0 0
BITMAP
30
40
70
D8
F8
C0
78
ENDCHAR

STARTCHAR ecircumflex
ENCODING 234
SWIDTH 573 0
DWIDTH 6 0
BBX 5 7 0 0
BITMAP
30
48
70
D8
F8
C0
78
ENDCHAR

STARTCHAR edieresis
ENCODING 235
SWIDTH 573 0
DWIDTH 6 0
BBX 5 7 0 0
BITMAP
F0
F0
70
D8
F8
C0
78
ENDCHAR

STARTCHAR igrave
ENCODING 236
SWIDTH 354 0
DWIDTH 4 0
BBX 4 7 0 0
BITMAP
C0
20
E0
60
60
60
F0
ENDCHAR

STARTCHAR iacute
ENCODING 237
SWIDTH 354 0
DWIDTH 4 0
BBX 4 7 0 0
BITMAP
30
40
E0
60
60
60
F0
ENDCHAR

STARTCHAR icircumflex
ENCODING 238
SWIDTH 354 0
DWIDTH 4 0
BBX 4 7 0 0
BITMAP
60
90
E0
60
60
60
F0
ENDCHAR

STARTCHAR idieresis
ENCODING 239
SWIDTH 354 0
DWIDTH 4 0
BBX 4 7 0 0
BITMAP
F0
F0
E0
60
60
60
F0
ENDCHAR

STARTCHAR eth
ENCODING 240
SWIDTH 573 0
DWIDTH 6 0
BBX 5 8 0 0
BITMAP
70
70
D0
78
D8
D8
D8
70
ENDCHAR

STARTCHAR ntilde
ENCODING 241
SWIDTH 625 0
DWIDTH 6 0
BBX 7 7 0 0
BITMAP
68
58
FC
6C
6C
6C
FE
ENDCHAR

STARTCHAR ograve
ENCODING 242
SWIDTH 573 0
DWIDTH 6 0
BBX 5 7 0 0
BITMAP
60
10
70
D8
D8
D8
70
ENDCHAR

STARTCHAR oacute
ENCODING 243
SWIDTH 573 0
DWIDTH 6 0
BBX 5 7 0 0
BITMAP
30
40
70
D8
D8
D8
70
ENDCHAR

STARTCHAR ocircumflex
ENCODING 244
SWIDTH 573 0
DWIDTH 6 0
BBX 5 7 0 0
BITMAP
30
48
70
D8
D8
D8
70
ENDCHAR

STARTCHAR otilde
ENCODING 245
SWIDTH 573 0
DWIDTH 6 0
BBX 5 7 0 0
BITMAP
68
58
70
D8
D8
D8
70
ENDCHAR

STARTCHAR odieresis
ENCODING 246
SWIDTH 573 0
DWIDTH 6 0
BBX 5 7 0 0
BITMAP
F0
F0
70
D8
D8
D8
70
ENDCHAR

STARTCHAR divide
ENCODING 247
SWIDTH 668 0
DWIDTH 7 0
BBX 6 7 0 0
BITMAP
30
30
00
FC
00
30
30
ENDCHAR

STARTCHAR oslash
ENCODING 248
SWIDTH 573 0
DWIDTH 6 0
BBX 5 5 0 0
BITMAP
78
D8
F8
D8
F0
ENDCHAR

STARTCHAR ugrave
ENCODING 249
SWIDTH 625 0
DWIDTH 6 0
BBX 7 7 0 0
BITMAP
30
08
FC
6C
6C
6C
7E
ENDCHAR

STARTCHAR uacute
ENCODING 250
SWIDTH 625 0
DWIDTH 6 0
BBX 7 7 0 0
BITMAP
18
20
FC
6C
6C
6C
7E
ENDCHAR

STARTCHAR ucircumflex
ENCODING 251
SWIDTH 625 0
DWIDTH 6 0
BBX 7 7 0 0
BITMAP
30
48
FC
6C
6C
6C
7E
ENDCHAR

STARTCHAR udieresis
ENCODING 252
SWIDTH 625 0
DWIDTH 6 0
BBX 7 7 0 0
BITMAP
78
78
FC
6C
6C
6C
7E
ENDCHAR

STARTCHAR yacute
ENCODING 253
SWIDTH 594 0
DWIDTH 6 0
BBX 6 10 0 -3
BITMAP
18
20
FC
68
68
70
30
30
20
60
ENDCHAR

STARTCHAR thorn
ENCODING 254
SWIDTH 625 0
DWIDTH 6 0
BBX 6 11 0 -3
BITMAP
E0
60
60
78
6C
6C
6C
78
60
60
F0
ENDCHAR

STARTCHAR ydieresis
ENCODING 255
SWIDTH 594 0
DWIDTH 6 0
BBX 6 10 0 -3
BITMAP
78
78
FC
68
68
70
30
30
20
60
ENDCHAR
ENDFONT
